Coordinates
version=1
nRows=14
nColumns=46
inDegrees=yes

Units are S.I. units (second, meters, Newtons, ...)
Angles are in degrees.

endheader
time	pelvis_tilt	pelvis_list	pelvis_rotation	pelvis_tx	pelvis_ty	pelvis_tz	bb_angle	bb_tx	bb_ty	bb_tz	hip_flexion_r	hip_adduction_r	hip_rotation_r	knee_angle_r	knee_angle_r_beta	ankle_angle_r	subtalar_angle_r	mtp_angle_r	crank_angle_r	hip_flexion_l	hip_adduction_l	hip_rotation_l	knee_angle_l	knee_angle_l_beta	ankle_angle_l	subtalar_angle_l	mtp_angle_l	crank_angle_l	lumbar_extension	lumbar_bending	lumbar_rotation	arm_flex_r	arm_add_r	arm_rot_r	elbow_flex_r	pro_sup_r	wrist_flex_r	wrist_dev_r	arm_flex_l	arm_add_l	arm_rot_l	elbow_flex_l	pro_sup_l	wrist_flex_l	wrist_dev_l
      7.50500000	    -16.81922254	     10.26034634	      7.14511074	      0.16543823	      1.13346751	     -0.18825160	      0.00000000	      0.50000000	      0.00000000	      0.25000000	     32.80682510	    -13.62830257	      1.24068260	     19.55503949	      0.34129982	    -11.45144345	     -8.16628932	      0.00000000	      0.00000000	     86.17086990	      7.72405280	      3.71248485	    107.23967106	      1.87168535	      2.81383409	     -2.95427786	      0.00000000	      0.00000000	    -62.19916035	     -9.10151223	    -21.51621270	     82.87866457	     -9.87494794	     37.16803001	     48.90630888	     41.44910842	      0.00000000	      0.00000000	     89.22016687	    -25.78606775	     36.49739175	     65.44854265	     46.18908885	      0.00000000	      0.00000000
      7.51000000	    -16.98987359	     10.25226978	      7.21799881	      0.16518107	      1.13468980	     -0.18822260	      0.00000000	      0.50000000	      0.00000000	      0.25000000	     32.68093956	    -13.63137385	      1.04298617	     20.12186900	      0.35119287	    -11.73583913	     -8.43267151	      0.00000000	      0.00000000	     86.50586437	      7.54869017	      3.52863517	    106.54192233	      1.85950734	      4.19588642	     -2.99557429	      0.00000000	      0.00000000	    -62.22621377	     -9.20931903	    -21.54441928	     83.02727130	     -9.89342153	     37.04438589	     48.82802305	     41.44839464	      0.00000000	      0.00000000	     89.27269854	    -25.62513654	     36.47463786	     65.50011138	     46.15395431	      0.00000000	      0.00000000
      7.51500000	    -17.28977936	     10.34963621	      7.47084579	      0.16527473	      1.13608834	     -0.18814102	      0.00000000	      0.50000000	      0.00000000	      0.25000000	     32.78247614	    -13.80482924	      0.85551606	     20.99653790	      0.36645872	    -11.91722975	     -9.08622553	      0.00000000	      0.00000000	     86.65599925	      7.54573051	      3.20083538	    105.57368716	      1.84260844	      5.98452289	     -2.99569624	      0.00000000	      0.00000000	    -62.18968248	     -9.30333356	    -21.72483340	     83.09399682	     -9.98018239	     36.82371767	     48.69121769	     41.43493284	      0.00000000	      0.00000000	     89.30320654	    -25.35635205	     36.47797349	     65.60322327	     46.11691108	      0.00000000	      0.00000000
      7.52000000	    -17.50101266	     10.42210126	      7.30534548	      0.16484665	      1.13702364	     -0.18839383	      0.00000000	      0.50000000	      0.00000000	      0.25000000	     33.23106176	    -13.76162523	      1.25571280	     22.40833629	      0.39109925	    -11.99385132	     -9.82456325	      0.00000000	      0.00000000	     86.74775413	      7.06972644	      2.94090127	    104.63316270	      1.82619320	      7.95214755	     -1.94243222	      0.00000000	      0.00000000	    -62.17141425	     -9.64656677	    -21.67425997	     83.13666817	     -9.99847075	     36.29070330	     48.48435560	     41.43918494	      0.00000000	      0.00000000	     89.32883185	    -25.00664850	     36.41964173	     65.68123782	     45.96857453	      0.00000000	      0.00000000
      7.52500000	    -17.55765529	     10.00474614	      6.64894261	      0.16402526	      1.13724751	     -0.19046826	      0.00000000	      0.50000000	      0.00000000	      0.25000000	     33.89005496	    -13.16661557	      1.77661610	     24.18113934	      0.42204050	    -12.07469274	    -10.28151925	      0.00000000	      0.00000000	     86.70570429	      6.48393749	      3.08920265	    103.82020264	      1.81200437	      9.97963006	     -2.12779359	      0.00000000	      0.00000000	    -62.02079185	     -9.74116199	    -20.91864195	     83.47579686	    -10.11718572	     35.87909576	     48.40928614	     41.48981773	      0.00000000	      0.00000000	     89.30857479	    -24.81165972	     36.38986497	     65.73510304	     45.80623875	      0.00000000	      0.00000000
      7.53000000	    -17.49902209	      9.79057000	      6.58730790	      0.16364911	      1.13870291	     -0.19156813	      0.00000000	      0.50000000	      0.00000000	      0.25000000	     34.20341057	    -12.93523623	      2.08225590	     25.86575893	      0.45144266	    -12.36616777	    -10.90407278	      0.00000000	      0.00000000	     86.17275671	      6.37705544	      3.04774315	    102.47352256	      1.78850036	     11.81705562	     -2.68121960	      0.00000000	      0.00000000	    -62.18684691	     -9.50861391	    -20.62888311	     83.72322599	    -10.19499073	     35.70521204	     48.43543699	     41.50202175	      0.00000000	      0.00000000	     89.31951900	    -24.77621317	     36.39051447	     65.75595426	     45.76671160	      0.00000000	      0.00000000
      7.53500000	    -17.59143581	      9.94400535	      6.30670877	      0.16319064	      1.13978559	     -0.19237109	      0.00000000	      0.50000000	      0.00000000	      0.25000000	     35.08727319	    -12.88225314	      2.93265340	     28.16160501	      0.49151273	    -12.49889223	    -12.00458998	      0.00000000	      0.00000000	     85.54402722	      6.17929048	      2.56773696	    100.82184062	      1.75967308	     13.67106187	     -3.26185575	      0.00000000	      0.00000000	    -62.26046097	     -9.85055710	    -20.53398113	     83.83968756	    -10.48066955	     35.26623023	     48.47490180	     41.56928463	      0.00000000	      0.00000000	     89.34195310	    -24.47698066	     36.42433275	     65.87895253	     45.62369339	      0.00000000	      0.00000000
      7.54000000	    -17.34846335	      9.64230942	      6.16185049	      0.16284615	      1.14113904	     -0.19375097	      0.00000000	      0.50000000	      0.00000000	      0.25000000	     35.57240019	    -12.50594563	      3.42614661	     30.43969838	      0.53127296	    -12.83962941	    -12.67979563	      0.00000000	      0.00000000	     84.60191994	      6.10141823	      2.65496929	     99.13707394	      1.73026835	     15.33888091	     -3.95241851	      0.00000000	      0.00000000	    -62.50513712	     -9.49441952	    -20.09477696	     84.09033400	    -10.55037618	     35.08807210	     48.55377571	     41.59064060	      0.00000000	      0.00000000	     89.33657194	    -24.53437579	     36.41668886	     65.87477642	     45.57835709	      0.00000000	      0.00000000
      7.54500000	    -17.31018561	      9.74951250	      5.87655180	      0.16254003	      1.14215906	     -0.19477990	      0.00000000	      0.50000000	      0.00000000	      0.25000000	     36.62449890	    -12.38591150	      4.31877818	     33.22423385	      0.57987227	    -13.01255124	    -13.65789428	      0.00000000	      0.00000000	     83.70248165	      5.85039779	      2.18116550	     97.15301629	      1.69564001	     16.76160447	     -4.41096016	      0.00000000	      0.00000000	    -62.66344122	     -9.72255451	    -19.97554951	     84.17104422	    -10.83552367	     34.71072981	     48.70470007	     41.68300670	      0.00000000	      0.00000000	     89.34787118	    -24.33741154	     36.47621330	     65.96135002	     45.43361043	      0.00000000	      0.00000000
      7.55000000	    -17.10157506	      9.63055187	      5.76639189	      0.16219978	      1.14327991	     -0.19621371	      0.00000000	      0.50000000	      0.00000000	      0.25000000	     37.46745308	    -12.14273302	      5.01599447	     36.04249886	      0.62906028	    -13.27886915	    -14.44879623	      0.00000000	      0.00000000	     82.60235524	      5.77420031	      1.94338585	     95.06682127	      1.65922904	     17.94121985	     -5.11615076	      0.00000000	      0.00000000	    -62.89560239	     -9.50252973	    -19.70354077	     84.32323124	    -11.00829954	     34.47129721	     48.84860942	     41.75529918	      0.00000000	      0.00000000	     89.34851865	    -24.31316251	     36.51809651	     65.95229647	     45.32258580	      0.00000000	      0.00000000
      7.55500000	    -16.76622671	      9.39869469	      5.62313123	      0.16206343	      1.14434628	     -0.19777522	      0.00000000	      0.50000000	      0.00000000	      0.25000000	     38.24016871	    -11.78967612	      5.59755627	     38.95029133	      0.67981083	    -13.58240568	    -15.02652482	      0.00000000	      0.00000000	     81.40190587	      5.71552026	      1.93782225	     93.00298813	      1.62320836	     18.92285514	     -5.65951326	      0.00000000	      0.00000000	    -63.19143624	     -9.17278560	    -19.33127084	     84.49943528	    -11.09224740	     34.34373748	     48.95172083	     41.79721824	      0.00000000	      0.00000000	     89.33492149	    -24.36766078	     36.55573303	     65.88900446	     45.25754376	      0.00000000	      0.00000000
      7.56000000	    -16.40807614	      9.20743578	      5.50064422	      0.16206881	      1.14527844	     -0.19941130	      0.00000000	      0.50000000	      0.00000000	      0.25000000	     39.00331428	    -11.43095458	      6.30816477	     41.89249617	      0.73116199	    -13.88911853	    -15.59290013	      0.00000000	      0.00000000	     80.16206276	      5.77271286	      2.00808447	     90.90019895	      1.58650776	     19.57229021	     -6.14105245	      0.00000000	      0.00000000	    -63.48929875	     -8.85971368	    -18.99108804	     84.59697251	    -11.19421176	     34.26510975	     49.01831011	     41.83752123	      0.00000000	      0.00000000	     89.31484745	    -24.39746034	     36.62510471	     65.81822044	     45.19765499	      0.00000000	      0.00000000
      7.56500000	    -16.04258553	      8.94273541	      5.43843710	      0.16216068	      1.14622735	     -0.20108362	      0.00000000	      0.50000000	      0.00000000	      0.25000000	     39.72602893	    -11.01104360	      6.97950638	     44.77266025	      0.78143034	    -14.22271510	    -16.00012630	      0.00000000	      0.00000000	     78.90429613	      5.72961461	      2.06622087	     88.75066166	      1.54899126	     19.91920741	     -6.34438816	      0.00000000	      0.00000000	    -63.75764471	     -8.42847524	    -18.60602593	     84.65595352	    -11.23770889	     34.24952634	     49.08633700	     41.87488298	      0.00000000	      0.00000000	     89.27502007	    -24.45891433	     36.68499303	     65.72268050	     45.14974332	      0.00000000	      0.00000000
      7.57000000	    -15.74817039	      9.12568471	      5.30166033	      0.16225479	      1.14696070	     -0.20262258	      0.00000000	      0.50000000	      0.00000000	      0.25000000	     40.72632066	    -10.96938070	      7.87704527	     47.89057682	      0.83584825	    -14.35906757	    -16.12567648	      0.00000000	      0.00000000	     77.64569447	      5.79666810	      1.69726007	     86.44367327	      1.50872672	     19.89614125	     -6.76802728	      0.00000000	      0.00000000	    -64.00877419	     -8.42840823	    -18.59710156	     84.60524749	    -11.53359058	     34.41755277	     49.28388078	     42.07260242	      0.00000000	      0.00000000	     89.29168540	    -24.35012080	     36.98308116	     65.32906205	     44.91461397	      0.00000000	      0.00000000
